<?xml version="1.0" encoding="UTF-8" standalone="no"?>
<!-- Created with Inkscape (http://www.inkscape.org/) -->

<svg
   width="210mm"
   height="297mm"
   viewBox="0 0 210 297"
   version="1.1"
   id="svg143"
   inkscape:version="1.1.2 (b8e25be8, 2022-02-05)"
   sodipodi:docname="revised_infographic.svg"
   xmlns:inkscape="http://www.inkscape.org/namespaces/inkscape"
   xmlns:sodipodi="http://sodipodi.sourceforge.net/DTD/sodipodi-0.dtd"
   xmlns="http://www.w3.org/2000/svg"
   xmlns:svg="http://www.w3.org/2000/svg">
  <sodipodi:namedview
     id="namedview145"
     pagecolor="#ffffff"
     bordercolor="#666666"
     borderopacity="1.0"
     inkscape:pageshadow="2"
     inkscape:pageopacity="0.0"
     inkscape:pagecheckerboard="0"
     inkscape:document-units="mm"
     showgrid="false"
     inkscape:zoom="0.48016975"
     inkscape:cx="396.73469"
     inkscape:cy="561.25984"
     inkscape:window-width="1312"
     inkscape:window-height="767"
     inkscape:window-x="0"
     inkscape:window-y="23"
     inkscape:window-maximized="0"
     inkscape:current-layer="layer1" />
  <defs
     id="defs140">
    <rect
       x="36.079147"
       y="953.52039"
       width="146.52553"
       height="67.004135"
       id="rect69960" />
    <rect
       x="593.46521"
       y="793.74127"
       width="167.87849"
       height="83.202934"
       id="rect36246" />
    <rect
       x="33.87022"
       y="560.3313"
       width="175.36909"
       height="76.251144"
       id="rect31965" />
    <rect
       x="581.68427"
       y="395.39801"
       width="187.02254"
       height="79.521393"
       id="rect23099" />
    <rect
       x="599.35565"
       y="147.99814"
       width="178.92313"
       height="80.257698"
       id="rect8526" />
    <rect
       x="344.66977"
       y="810.13019"
       width="89.551666"
       height="42.693233"
       id="rect7064" />
    <rect
       x="185.35112"
       y="462.33649"
       width="435.26273"
       height="72.890892"
       id="rect4612" />
  </defs>
  <g
     inkscape:label="Layer 1"
     inkscape:groupmode="layer"
     id="layer1">
    <rect
       style="fill:#191919;stroke:#000000;stroke-width:0.264583;fill-opacity:1;stroke-opacity:1"
       id="rect189"
       width="211.59183"
       height="298.65305"
       x="-0.55102038"
       y="0" />
    <text
       xml:space="preserve"
       transform="matrix(0.26458333,0,0,0.26458333,-1.2353222,-13.311452)"
       id="text4610"
       style="font-style:normal;font-weight:normal;font-size:40px;line-height:1.25;font-family:sans-serif;white-space:pre;shape-inside:url(#rect4612);fill:#000000;fill-opacity:1;stroke:none" />
    <circle
       style="fill:#0000ff;stroke-width:0.264583"
       id="path2358"
       cx="104.83611"
       cy="53.913036"
       r="24.520409" />
    <circle
       style="fill:#00ffff;stroke-width:0.264583"
       id="path2564"
       cx="104.83611"
       cy="53.913044"
       r="7.9897962" />
    <path
       style="fill:#0000ff;stroke-width:0.264583"
       id="path2723"
       d="m 63.67921,70.255661 c 0.0647,-1.47851 0.47667,-2.923895 0.53721,-4.402368 0.0304,-0.74169 0.0128,-1.487305 -0.0587,-2.226159 -0.18151,-1.874409 -0.56992,-3.102864 -1.03336,-4.937043 -0.89673,-3.189909 -1.87911,-6.403549 -1.88885,-9.750613 -0.006,-2.004814 0.15052,-2.240986 0.56646,-4.140943 0.28472,-0.579451 0.5049,-1.195353 0.85416,-1.738352 0.75021,-1.166368 1.84751,-2.17464 2.88455,-3.068704 1.64626,-1.41928 3.43969,-2.66328 5.21275,-3.915137 2.12134,-1.384168 4.18346,-2.85986 6.07577,-4.547659 0.91934,-0.81998 1.67735,-1.586695 2.55282,-2.448597 0.37603,-0.394096 0.75143,-0.788794 1.12809,-1.182287 1.03335,-1.07953 2.05839,-2.206467 3.28135,-3.080235 0.43099,-0.307924 1.54508,-1.334378 1.34693,-0.843153 -0.21618,0.53589 -0.94155,0.670177 -1.41232,1.005266 2.94303,-1.151877 6.0622,-1.793406 9.21409,-1.990534 2.12309,-0.132784 3.33623,-0.05617 5.468539,-0.0043 5.585501,0.266943 11.167731,0.613563 16.760971,0.631182 3.20933,0.03378 6.415,-0.384136 9.62463,-0.265856 2.26508,0.08347 2.48263,0.198038 4.73016,0.581784 0.86485,0.251865 1.74658,0.451723 2.59455,0.755592 3.45091,1.236617 7.02635,3.192558 9.64885,5.788612 0.5449,0.539406 1.00643,1.156975 1.50965,1.735463 0.39245,0.636267 0.82966,1.247008 1.17734,1.908799 0.75326,1.433815 1.28818,3.047984 1.80226,4.573257 0.79452,2.357371 1.51038,4.735838 2.33048,7.084851 0.7573,2.408444 2.45735,4.266777 3.77722,6.356437 1.14771,1.81709 1.10319,1.887181 2.01684,3.850122 1.15868,3.187607 2.32031,6.918499 1.56785,10.34158 -0.15348,0.698236 -0.45145,1.356667 -0.67718,2.034998 -0.91007,1.985111 -2.23598,3.707223 -3.67639,5.330206 -0.68757,0.774721 -1.5087,1.637736 -2.33062,2.283367 -0.37655,0.295789 -0.79144,0.539211 -1.18716,0.808816 0.64166,-0.395335 1.40839,-0.637228 1.92497,-1.186003 0.31762,-0.337415 -0.85528,0.358196 -1.29188,0.513466 -1.38816,0.493676 -2.82409,0.780616 -4.23991,1.174015 -0.53262,0.147997 -1.05811,0.320603 -1.58716,0.480906 -2.25414,0.76276 -4.39017,1.806268 -6.43527,3.015623 -4.69727,2.777697 -3.5131,2.040692 -6.55831,4.008083 -1.67746,1.054349 -3.3405,2.133615 -5.03782,3.156155 -0.53915,0.3248 -1.02585,0.77485 -1.62893,0.95505 -0.49609,0.14823 1.81274,-0.89369 1.29637,-0.85568 -0.78622,0.0579 -1.45233,0.61374 -2.17849,0.92061 -3.45734,1.27502 -7.06886,2.1858 -10.78137,2.05037 -2.2179,-0.0809 -3.43562,-0.40219 -5.58264,-0.82104 -4.77661,-1.30224 -9.29699,-3.3611 -13.92334,-5.097053 -3.86536,-1.426975 -7.79067,-2.680499 -11.68611,-4.019717 -2.34423,-0.837485 -4.70536,-1.645325 -6.98871,-2.641899 -1.01224,-0.441793 -2.0553,-0.96326 -3.04814,-1.447567 -2.30574,-1.150527 -4.52588,-2.457781 -6.53254,-4.077192 -0.80034,-0.72486 -1.77073,-1.643097 -1.80408,-2.815595 -0.004,-0.156533 0.0409,-0.31051 0.0614,-0.465762 0.0522,-0.140756 0.10446,-0.281512 0.15669,-0.422267 0,0 -3.52792,1.672479 -3.52792,1.672479 v 0 c -0.0377,0.165724 -0.0755,0.331451 -0.11318,0.497175 -10e-4,0.18436 -0.0256,0.369986 -0.004,0.55308 0.14728,1.248635 1.10226,2.241304 2.02033,3.000582 0.49084,0.379102 1.29015,1.008258 1.79192,1.34366 1.55374,1.038566 3.24167,1.86178 4.88996,2.73341 0.86883,0.419145 2.20327,1.074073 3.0835,1.45274 2.29536,0.987451 4.66526,1.8039 7.0148,2.648968 3.922,1.339038 7.87966,2.572528 11.79397,3.934618 2.61961,0.98119 2.1876,0.79794 4.77143,1.85107 3.01962,1.23077 6.031279,2.51305 9.21485,3.27306 2.14501,0.41406 3.45164,0.741 5.65964,0.85448 3.77847,0.19419 7.22194,-0.63282 10.75852,-1.87112 0.71564,-0.28595 1.45895,-0.51056 2.14693,-0.85783 3.98809,-2.01311 7.76024,-4.405819 11.51971,-6.80677 0.57934,-0.372629 1.26824,-0.614111 1.73804,-1.117889 0.34475,-0.369702 -1.71356,1.045366 -1.3464,0.697908 0.44244,-0.418693 1.0457,-0.625637 1.57971,-0.918705 1.53201,-0.840772 3.13216,-1.540925 4.77411,-2.137447 0.51763,-0.159856 1.03095,-0.334404 1.55289,-0.479571 1.41454,-0.393422 2.85334,-0.666276 4.25085,-1.126156 2.49982,-0.822608 2.42143,-1.101625 5.75034,-2.984955 0.38422,-0.281935 0.78714,-0.54002 1.15266,-0.845804 0.79038,-0.661199 1.56262,-1.512512 2.22377,-2.293282 1.41088,-1.666147 2.70007,-3.430069 3.58794,-5.438663 0.22169,-0.70503 0.51877,-1.390653 0.66506,-2.11509 0.69791,-3.456009 -0.49923,-7.286032 -1.68534,-10.493343 -0.31184,-0.678834 -0.59428,-1.371955 -0.9355,-2.036503 -0.46564,-0.906849 -1.58221,-2.740483 -2.16304,-3.603692 -0.9823,-1.459873 -1.02833,-1.228801 -1.86798,-2.802178 -0.30108,-0.564163 -0.54297,-1.157962 -0.81446,-1.736944 -0.26156,-0.693365 -0.53827,-1.381205 -0.78468,-2.080096 -0.54954,-1.558634 -1.10002,-3.396798 -1.6083,-4.962478 -0.54919,-1.691679 -0.95588,-3.101422 -1.78272,-4.675513 -0.35683,-0.679323 -0.81146,-1.302599 -1.21719,-1.953897 -0.52273,-0.586782 -1.00106,-1.216359 -1.5682,-1.760347 -2.54676,-2.442824 -6.48462,-4.619694 -9.75737,-5.886138 -0.83967,-0.324924 -1.71542,-0.547558 -2.57313,-0.821335 -2.20635,-0.408136 -2.51702,-0.545092 -4.74588,-0.646425 -3.23309,-0.146987 -6.45956,0.324914 -9.69145,0.31405 -5.59498,0.0158 -11.1789,-0.328163 -16.76482,-0.61631 -2.014321,-0.06594 -3.44782,-0.155009 -5.45775,-0.05613 -3.13159,0.154069 -6.2332,0.748115 -9.18238,1.815531 -1.42975,0.761037 -4.47381,2.184281 -6.20441,3.47685 -1.63664,1.222391 -2.91116,2.848417 -4.35641,4.273489 -0.95624,0.938818 -1.52353,1.520552 -2.53789,2.412921 -1.89208,1.664515 -3.95919,3.103319 -6.04936,4.504787 -1.75751,1.2617 -3.54397,2.5106 -5.16484,3.949092 -1.07293,0.952211 -2.13329,1.965793 -2.87706,3.212391 -0.33844,0.56724 -0.53754,1.206759 -0.80631,1.810139 -0.36574,1.941039 -0.50813,2.164619 -0.46557,4.198778 0.0703,3.361325 1.07735,6.565252 1.96614,9.775629 0.40408,1.746629 0.79904,3.117784 0.92312,4.904433 0.1592,2.292366 -0.38723,4.504749 -0.82389,6.733641 0,0 3.51357,-1.72321 3.51357,-1.72321 z" />
    <ellipse
       style="fill:#0000ff;stroke-width:0.148404"
       id="path2358-0"
       cx="100.39024"
       cy="137.65215"
       rx="24.520409"
       ry="7.7142863" />
    <circle
       style="fill:#000000;stroke-width:0.264583"
       id="path2564-6"
       cx="100.39024"
       cy="137.65216"
       r="7.9897962" />
    <path
       style="fill:#0000ff;stroke-width:0.264583"
       id="path2723-1"
       d="m 59.23334,153.9948 c 0.0647,-1.47851 0.47666,-2.9239 0.5372,-4.40237 0.0304,-0.74169 0.0128,-1.48731 -0.0587,-2.22616 -0.1815,-1.87441 -0.56991,-3.10286 -1.03336,-4.93704 -0.89672,-3.18991 -1.87911,-6.40355 -1.88884,-9.75062 -0.006,-2.00481 0.15052,-2.24098 0.56646,-4.14094 0.28472,-0.57945 0.5049,-1.19535 0.85416,-1.73835 0.75021,-1.16637 1.8475,-2.17464 2.88454,-3.06871 1.64626,-1.41928 3.4397,-2.66327 5.21275,-3.91513 2.12134,-1.38417 4.18346,-2.85986 6.07578,-4.54766 0.91934,-0.81998 1.67735,-1.5867 2.55281,-2.4486 0.37603,-0.39409 0.75143,-0.78879 1.1281,-1.18229 1.03334,-1.07953 2.05838,-2.20646 3.28134,-3.08023 0.43099,-0.30792 1.54509,-1.33438 1.34694,-0.84315 -0.21618,0.53589 -0.94156,0.67017 -1.41232,1.00526 2.94303,-1.15187 6.0622,-1.7934 9.21409,-1.99053 2.12308,-0.13279 3.33623,-0.0562 5.46854,-0.004 5.585499,0.26694 11.16773,0.61356 16.76097,0.63118 3.20933,0.0338 6.415,-0.38414 9.62463,-0.26586 2.26508,0.0835 2.48263,0.19804 4.73016,0.58179 0.86485,0.25186 1.74658,0.45172 2.59455,0.75559 3.45091,1.23662 7.02635,3.19256 9.64885,5.78861 0.5449,0.53941 1.00643,1.15698 1.50965,1.73547 0.39245,0.63626 0.82966,1.247 1.17734,1.90879 0.75326,1.43382 1.28818,3.04799 1.80226,4.57326 0.79452,2.35737 1.51038,4.73584 2.33048,7.08485 0.7573,2.40845 2.45735,4.26678 3.77722,6.35644 1.14771,1.81709 1.10319,1.88718 2.01684,3.85012 1.15868,3.18761 2.32031,6.9185 1.56785,10.34158 -0.15348,0.69824 -0.45145,1.35667 -0.67718,2.035 -0.91007,1.98511 -2.23598,3.70722 -3.67639,5.33021 -0.68757,0.77472 -1.5087,1.63773 -2.33062,2.28336 -0.37655,0.29579 -0.79144,0.53921 -1.18716,0.80882 0.64166,-0.39534 1.40839,-0.63723 1.92497,-1.186 0.31762,-0.33742 -0.85528,0.35819 -1.29188,0.51346 -1.38816,0.49368 -2.82409,0.78062 -4.23991,1.17402 -0.53262,0.14799 -1.05811,0.3206 -1.58716,0.4809 -2.25414,0.76276 -4.39017,1.80627 -6.43527,3.01563 -4.69727,2.77769 -3.5131,2.04069 -6.55831,4.00808 -1.67746,1.05435 -3.3405,2.13361 -5.03782,3.15615 -0.53915,0.3248 -1.02585,0.77485 -1.62893,0.95505 -0.49609,0.14823 1.81274,-0.89369 1.29637,-0.85568 -0.78622,0.0579 -1.45233,0.61374 -2.17849,0.92061 -3.45734,1.27502 -7.06886,2.1858 -10.78137,2.05037 -2.2179,-0.0809 -3.43562,-0.40219 -5.58264,-0.82104 -4.77662,-1.30224 -9.297,-3.3611 -13.92335,-5.09705 -3.86536,-1.42697 -7.79067,-2.6805 -11.68611,-4.01972 -2.34423,-0.83748 -4.70536,-1.64532 -6.98871,-2.6419 -1.01224,-0.44179 -2.0553,-0.96326 -3.04814,-1.44756 -2.30574,-1.15053 -4.52588,-2.45778 -6.53254,-4.07719 -0.80034,-0.72486 -1.77073,-1.6431 -1.80408,-2.8156 -0.004,-0.15653 0.0409,-0.31051 0.0614,-0.46576 0.0522,-0.14076 0.10446,-0.28151 0.15669,-0.42227 0,0 -3.52792,1.67248 -3.52792,1.67248 v 0 c -0.0377,0.16572 -0.0755,0.33145 -0.11318,0.49718 -0.001,0.18436 -0.0256,0.36998 -0.004,0.55308 0.14728,1.24863 1.10226,2.2413 2.02033,3.00058 0.49084,0.3791 1.29014,1.00826 1.79192,1.34366 1.55374,1.03856 3.24167,1.86178 4.88996,2.73341 0.86883,0.41914 2.20327,1.07407 3.08349,1.45274 2.29537,0.98745 4.66527,1.8039 7.01481,2.64897 3.922,1.33903 7.87966,2.57252 11.79397,3.93461 2.61961,0.98119 2.1876,0.79794 4.77143,1.85107 3.01962,1.23077 6.03128,2.51305 9.214849,3.27306 2.145021,0.41406 3.451651,0.741 5.659651,0.85448 3.77847,0.19419 7.22194,-0.63282 10.75852,-1.87112 0.71564,-0.28595 1.45895,-0.51056 2.14693,-0.85783 3.98809,-2.01311 7.76024,-4.40582 11.51971,-6.80677 0.57934,-0.37263 1.26824,-0.61411 1.73804,-1.11789 0.34475,-0.3697 -1.71356,1.04537 -1.3464,0.69791 0.44244,-0.41869 1.0457,-0.62563 1.57971,-0.9187 1.53201,-0.84077 3.13216,-1.54093 4.77411,-2.13745 0.51763,-0.15986 1.03095,-0.3344 1.55289,-0.47957 1.41454,-0.39342 2.85334,-0.66628 4.25085,-1.12616 2.49982,-0.8226 2.42143,-1.10162 5.75034,-2.98495 0.38422,-0.28194 0.78714,-0.54002 1.15266,-0.84581 0.79038,-0.66119 1.56262,-1.51251 2.22377,-2.29328 1.41088,-1.66614 2.70007,-3.43007 3.58794,-5.43866 0.22169,-0.70503 0.51877,-1.39065 0.66506,-2.11509 0.69791,-3.45601 -0.49923,-7.28603 -1.68534,-10.49334 -0.31184,-0.67884 -0.59428,-1.37196 -0.9355,-2.03651 -0.46564,-0.90685 -1.58221,-2.74048 -2.16304,-3.60369 -0.9823,-1.45987 -1.02833,-1.2288 -1.86798,-2.80218 -0.30108,-0.56416 -0.54297,-1.15796 -0.81446,-1.73694 -0.26156,-0.69337 -0.53827,-1.38121 -0.78468,-2.0801 -0.54954,-1.55863 -1.10002,-3.39679 -1.6083,-4.96247 -0.54919,-1.69168 -0.95588,-3.10143 -1.78272,-4.67552 -0.35683,-0.67932 -0.81146,-1.3026 -1.21719,-1.95389 -0.52273,-0.58679 -1.00106,-1.21636 -1.5682,-1.76035 -2.54676,-2.44283 -6.48462,-4.6197 -9.75737,-5.88614 -0.83967,-0.32492 -1.71542,-0.54756 -2.57313,-0.82133 -2.20635,-0.40814 -2.51702,-0.5451 -4.74588,-0.64643 -3.23309,-0.14699 -6.45956,0.32491 -9.69145,0.31405 -5.59498,0.0158 -11.1789,-0.32816 -16.76482,-0.61631 -2.01432,-0.0659 -3.44784,-0.15501 -5.45775,-0.0561 -3.13159,0.15407 -6.2332,0.74812 -9.18238,1.81553 -1.42976,0.76104 -4.47382,2.18428 -6.20441,3.47685 -1.63664,1.22239 -2.91116,2.84842 -4.35641,4.27349 -0.95625,0.93882 -1.52353,1.52055 -2.53789,2.41292 -1.89208,1.66452 -3.9592,3.10332 -6.04936,4.50479 -1.75751,1.2617 -3.54397,2.5106 -5.16484,3.94909 -1.07293,0.95221 -2.13329,1.96579 -2.87706,3.21239 -0.33844,0.56724 -0.53754,1.20676 -0.80631,1.81014 -0.36574,1.94104 -0.50813,2.16462 -0.46557,4.19878 0.0703,3.36132 1.07734,6.56525 1.96614,9.77563 0.40408,1.74663 0.79904,3.11778 0.92312,4.90443 0.1592,2.29237 -0.38724,4.50475 -0.82389,6.73364 0,0 3.51357,-1.72321 3.51357,-1.72321 z" />
    <ellipse
       style="fill:#0000ff;stroke-width:0.148404"
       id="path2358-0-3"
       cx="99.012627"
       cy="224.71306"
       rx="24.520409"
       ry="7.7142863" />
    <circle
       style="fill:#000000;stroke-width:0.264583"
       id="path2564-6-7"
       cx="99.012627"
       cy="224.71307"
       r="7.9897962" />
    <path
       style="fill:#0000ff;stroke-width:0.264583"
       id="path2723-1-0"
       d="m 57.85573,241.05572 c 0.0647,-1.47851 0.47667,-2.9239 0.53721,-4.40237 0.0304,-0.74169 0.0128,-1.48731 -0.0587,-2.22616 -0.1815,-1.87441 -0.56991,-3.10286 -1.03335,-4.93704 -0.89673,-3.18991 -1.87911,-6.40355 -1.88885,-9.75062 -0.006,-2.00481 0.15052,-2.24098 0.56646,-4.14094 0.28472,-0.57945 0.5049,-1.19535 0.85416,-1.73835 0.75021,-1.16637 1.8475,-2.17464 2.88455,-3.06871 1.64626,-1.41928 3.43969,-2.66327 5.21275,-3.91513 2.12134,-1.38417 4.18346,-2.85986 6.07577,-4.54766 0.91934,-0.81998 1.67735,-1.5867 2.55282,-2.4486 0.37603,-0.39409 0.75143,-0.78879 1.12809,-1.18229 1.03335,-1.07953 2.05839,-2.20646 3.28135,-3.08023 0.43099,-0.30792 1.54508,-1.33438 1.34693,-0.84315 -0.21618,0.53589 -0.94155,0.67017 -1.41232,1.00526 2.94303,-1.15187 6.0622,-1.7934 9.21409,-1.99053 2.12309,-0.13279 3.33623,-0.0562 5.46854,-0.004 5.5855,0.26694 11.16773,0.61356 16.76097,0.63118 3.20933,0.0338 6.415,-0.38414 9.62463,-0.26586 2.26508,0.0835 2.48263,0.19804 4.73016,0.58179 0.86485,0.25186 1.74658,0.45172 2.59455,0.75559 3.45091,1.23662 7.02635,3.19256 9.64885,5.78861 0.5449,0.53941 1.00643,1.15698 1.50965,1.73547 0.39245,0.63626 0.82966,1.247 1.17734,1.90879 0.75326,1.43382 1.28818,3.04799 1.80226,4.57326 0.79452,2.35737 1.51038,4.73584 2.33048,7.08485 0.7573,2.40845 2.45735,4.26678 3.77722,6.35644 1.14771,1.81709 1.10319,1.88718 2.01684,3.85012 1.15868,3.18761 2.32031,6.9185 1.56785,10.34158 -0.15348,0.69824 -0.45145,1.35667 -0.67718,2.035 -0.91007,1.98511 -2.23598,3.70722 -3.67639,5.33021 -0.68757,0.77472 -1.5087,1.63773 -2.33062,2.28336 -0.37655,0.29579 -0.79144,0.53921 -1.18716,0.80882 0.64166,-0.39534 1.40839,-0.63723 1.92497,-1.186 0.31762,-0.33742 -0.85528,0.35819 -1.29188,0.51346 -1.38816,0.49368 -2.82409,0.78062 -4.23991,1.17402 -0.53262,0.14799 -1.05811,0.3206 -1.58716,0.4809 -2.25414,0.76276 -4.39017,1.80627 -6.43527,3.01563 -4.69727,2.77769 -3.5131,2.04069 -6.55831,4.00808 -1.67746,1.05435 -3.3405,2.13361 -5.03782,3.15615 -0.53915,0.3248 -1.02585,0.77485 -1.62893,0.95505 -0.49609,0.14823 1.81274,-0.89369 1.29637,-0.85568 -0.78622,0.0579 -1.45233,0.61374 -2.17849,0.92061 -3.45734,1.27502 -7.06886,2.1858 -10.78137,2.05037 -2.2179,-0.0809 -3.43562,-0.40219 -5.58264,-0.82104 -4.77661,-1.30224 -9.29699,-3.3611 -13.92334,-5.09705 -3.86536,-1.42697 -7.79067,-2.6805 -11.68611,-4.01972 -2.34423,-0.83748 -4.70536,-1.64532 -6.98871,-2.6419 -1.01224,-0.44179 -2.0553,-0.96326 -3.04814,-1.44756 -2.30574,-1.15053 -4.52588,-2.45778 -6.53254,-4.07719 -0.80034,-0.72486 -1.77073,-1.6431 -1.80408,-2.8156 -0.004,-0.15653 0.0409,-0.31051 0.0614,-0.46576 0.0522,-0.14076 0.10446,-0.28151 0.15669,-0.42227 0,0 -3.52792,1.67248 -3.52792,1.67248 v 0 c -0.0377,0.16572 -0.0755,0.33145 -0.11318,0.49718 -10e-4,0.18436 -0.0256,0.36998 -0.004,0.55308 0.14728,1.24863 1.10226,2.2413 2.02033,3.00058 0.49084,0.3791 1.29014,1.00826 1.79192,1.34366 1.55374,1.03856 3.24167,1.86178 4.88996,2.73341 0.86883,0.41914 2.20327,1.07407 3.08349,1.45274 2.29537,0.98745 4.66527,1.8039 7.01481,2.64897 3.922,1.33903 7.87966,2.57252 11.79397,3.93461 2.61961,0.98119 2.1876,0.79794 4.77143,1.85107 3.01962,1.23077 6.03128,2.51305 9.21485,3.27306 2.145009,0.41406 3.45164,0.741 5.65964,0.85448 3.77847,0.19419 7.22194,-0.63282 10.75852,-1.87112 0.71564,-0.28595 1.45895,-0.51056 2.14693,-0.85783 3.98809,-2.01311 7.76024,-4.40582 11.51971,-6.80677 0.57934,-0.37263 1.26824,-0.61411 1.73804,-1.11789 0.34475,-0.3697 -1.71356,1.04537 -1.3464,0.69791 0.44244,-0.41869 1.0457,-0.62563 1.57971,-0.9187 1.53201,-0.84077 3.13216,-1.54093 4.77411,-2.13745 0.51763,-0.15986 1.03095,-0.3344 1.55289,-0.47957 1.41454,-0.39342 2.85334,-0.66628 4.25085,-1.12616 2.49982,-0.8226 2.42143,-1.10162 5.75034,-2.98495 0.38422,-0.28194 0.78714,-0.54002 1.15266,-0.84581 0.79038,-0.66119 1.56262,-1.51251 2.22377,-2.29328 1.41088,-1.66614 2.70007,-3.43007 3.58794,-5.43866 0.22169,-0.70503 0.51877,-1.39065 0.66506,-2.11509 0.69791,-3.45601 -0.49923,-7.28603 -1.68534,-10.49334 -0.31184,-0.67884 -0.59428,-1.37196 -0.9355,-2.03651 -0.46564,-0.90685 -1.58221,-2.74048 -2.16304,-3.60369 -0.9823,-1.45987 -1.02833,-1.2288 -1.86798,-2.80218 -0.30108,-0.56416 -0.54297,-1.15796 -0.81446,-1.73694 -0.26156,-0.69337 -0.53827,-1.38121 -0.78468,-2.0801 -0.54954,-1.55863 -1.10002,-3.39679 -1.6083,-4.96247 -0.54919,-1.69168 -0.95588,-3.10143 -1.78272,-4.67552 -0.35683,-0.67932 -0.81146,-1.3026 -1.21719,-1.95389 -0.52273,-0.58679 -1.00106,-1.21636 -1.5682,-1.76035 -2.54676,-2.44283 -6.48462,-4.6197 -9.75737,-5.88614 -0.83967,-0.32492 -1.71542,-0.54756 -2.57313,-0.82133 -2.20635,-0.40814 -2.51702,-0.5451 -4.74588,-0.64643 -3.23309,-0.14699 -6.45956,0.32491 -9.69145,0.31405 -5.59498,0.0158 -11.1789,-0.32816 -16.76482,-0.61631 -2.01432,-0.0659 -3.44783,-0.15501 -5.45775,-0.0561 -3.13159,0.15407 -6.2332,0.74812 -9.18238,1.81553 -1.42975,0.76104 -4.47381,2.18428 -6.20441,3.47685 -1.63664,1.22239 -2.91116,2.84842 -4.35641,4.27349 -0.95625,0.93882 -1.52353,1.52055 -2.53789,2.41292 -1.89208,1.66452 -3.9592,3.10332 -6.04936,4.50479 -1.75751,1.2617 -3.54397,2.5106 -5.16484,3.94909 -1.07293,0.95221 -2.13329,1.96579 -2.87706,3.21239 -0.33844,0.56724 -0.53754,1.20676 -0.80631,1.81014 -0.36574,1.94104 -0.50813,2.16462 -0.46557,4.19878 0.0703,3.36132 1.07734,6.56525 1.96614,9.77563 0.40408,1.74663 0.79904,3.11778 0.92312,4.90443 0.1592,2.29237 -0.38724,4.50475 -0.82389,6.73364 0,0 3.51357,-1.72321 3.51357,-1.72321 z" />
    <text
       xml:space="preserve"
       transform="matrix(0.26458333,0,0,0.26458333,-1.2353222,-13.311452)"
       id="text7062"
       style="font-style:normal;font-weight:normal;font-size:40px;line-height:1.25;font-family:sans-serif;white-space:pre;shape-inside:url(#rect7064);fill:#000000;fill-opacity:1;stroke:none" />
    <rect
       style="fill:#00ffff;stroke-width:0.264583"
       id="rect2903"
       width="13.247429"
       height="20.650404"
       x="93.250023"
       y="195.53036" />
    <rect
       style="fill:#00ffff;stroke-width:0.264583"
       id="rect2903-0"
       width="13.247429"
       height="20.650404"
       x="92.665581"
       y="233.32449" />
    <text
       xml:space="preserve"
       transform="matrix(0.26458333,0,0,0.26458333,-1.2353222,-13.311452)"
       id="text8524"
       style="font-style:normal;font-weight:normal;font-size:13.3333px;line-height:1.25;font-family:sans-serif;white-space:pre;shape-inside:url(#rect8526);fill:#000000;fill-opacity:1;stroke:none"><tspan
         x="599.35547"
         y="160.16242"
         id="tspan4063"><tspan
           style="fill:#ffffff"
           id="tspan4061">At this stage, the star is </tspan></tspan><tspan
         x="599.35547"
         y="176.82905"
         id="tspan4067"><tspan
           style="fill:#ffffff"
           id="tspan4065">hurling material from its </tspan></tspan><tspan
         x="599.35547"
         y="193.49567"
         id="tspan4071"><tspan
           style="fill:#ffffff"
           id="tspan4069">outer layers into space.</tspan></tspan></text>
    <path
       style="fill:#ffff00;stroke:#ffff00;stroke-width:0.264583;stroke-opacity:1"
       id="path19328"
       d="m 92.65693,193.57874 c 0.16665,-0.004 0.3335,-0.002 0.49995,-0.0106 0.8516,-0.0451 1.34419,-0.11535 2.21224,-0.12 1.25752,-0.007 2.50628,0.12439 3.755899,0.24533 1.556441,0.13324 3.094041,0.40969 4.633631,0.66422 0.93993,0.1523 1.88587,0.26124 2.83397,0.34651 1.40085,0.12245 1.44035,-0.72722 3.27939,-2.25292 0.11965,-0.0993 -0.29964,0.0845 -0.45237,0.11352 -0.50417,0.0959 -1.14963,0.1578 -1.64633,0.21441 -2.6046,0.23007 -5.21227,-0.0747 -7.816541,-0.16004 -1.43453,-0.0335 -2.869649,-0.036 -4.304389,-0.0168 -0.44187,0.005 -0.23368,0.004 -0.62457,0.005 0,0 -3.17263,2.31628 -3.17263,2.31628 v 0 c 0.41137,-0.017 0.19326,-0.008 0.65434,-0.0254 1.48979,-0.0585 2.9794,-0.13721 4.47098,-0.12753 1.382729,0.0191 1.26476,0.002 2.681819,0.0869 1.693421,0.10144 3.385911,0.27975 5.084761,0.16301 0.29863,-0.021 0.59726,-0.042 0.89589,-0.0631 0.22254,-0.0211 0.44471,-0.0465 0.66763,-0.0632 0.1464,-0.0109 0.31549,0.0583 0.44,-0.0195 1.17138,-0.7318 2.28977,-1.54716 3.39454,-2.37609 0.0395,-0.0296 -0.0792,-0.0648 -0.12737,-0.0753 -0.0776,-0.017 -0.15884,-0.003 -0.23826,-0.005 -0.96294,-0.0349 -1.92402,-0.11907 -2.87617,-0.26967 -1.58138,-0.2521 -3.16756,-0.4927 -4.76623,-0.60265 -1.25344,-0.10797 -2.518261,-0.25639 -3.776601,-0.28639 -0.379049,-0.009 -0.758089,0.0208 -1.137239,0.0237 -1.55821,0.012 -0.40198,-0.0307 -1.35558,0.0105 0,0 -3.21076,2.28421 -3.21076,2.28421 z" />
    <path
       style="fill:#ffff00;stroke:#ffff00;stroke-width:0.264583;stroke-opacity:1"
       id="path19330"
       d="m 90.61965,260.83765 c 2.31222,0.67575 4.60814,1.40322 6.92966,2.04711 1.272469,0.31972 2.5304,0.70914 3.81459,0.98248 0.88084,0.18751 1.77379,0.28649 2.66713,0.38923 1.18699,0.123 2.37811,0.2241 3.57059,0.14414 1.76142,-0.24178 2.65568,-0.94755 4.22343,-2.51489 0.16784,-0.1678 -0.43147,-0.2072 -0.66292,-0.25966 -0.38172,-0.0865 -0.77601,-0.103 -1.16401,-0.15449 -2.90775,-0.35243 -5.82741,-0.61357 -8.74898,-0.82241 -1.408431,-0.0853 -2.826111,-0.14843 -4.21351,-0.42537 -0.39104,-0.078 -1.10126,-0.26725 -1.49868,-0.37015 -0.55948,-0.13645 -1.1138,-0.29101 -1.66585,-0.45442 0,0 -3.19167,2.18278 -3.19167,2.18278 v 0 c 0.56845,0.16463 1.1395,0.31867 1.71999,0.43622 0.36361,0.087 1.21578,0.29448 1.56139,0.36195 1.41776,0.2767 2.86498,0.36378 4.30612,0.40762 2.90488,0.15293 5.8124,0.36804 8.68802,0.8191 0.3418,0.0698 0.68078,0.15518 1.0254,0.20939 0.12549,0.0198 0.27025,0.0742 0.3809,0.0119 1.13843,-0.64185 2.20761,-1.39946 3.31402,-2.09505 0.0723,-0.0455 -0.13427,0.10825 -0.21157,0.14457 -0.1751,0.0823 -0.58325,0.17479 -0.75271,0.21775 -1.19151,0.15135 -2.39059,0.0462 -3.58446,-0.0402 -0.90746,-0.0809 -1.81714,-0.14224 -2.71569,-0.30056 -1.30828,-0.23054 -2.59415,-0.58029 -3.87812,-0.91501 -2.25566,-0.64125 -4.50087,-1.32451 -6.68065,-2.19507 0,0 -3.23242,2.19316 -3.23242,2.19316 z" />
    <text
       xml:space="preserve"
       transform="matrix(0.26458333,0,0,0.26458333,-1.2353222,-13.311452)"
       id="text23097"
       style="font-style:normal;font-weight:normal;font-size:13.3333px;line-height:1.25;font-family:sans-serif;white-space:pre;shape-inside:url(#rect23099);fill:#000000;fill-opacity:1;stroke:none"><tspan
         x="581.68359"
         y="407.56281"
         id="tspan4075"><tspan
           style="fill:#ffffff"
           id="tspan4073">Once the star runs out of </tspan></tspan><tspan
         x="581.68359"
         y="424.22944"
         id="tspan4079"><tspan
           style="fill:#ffffff"
           id="tspan4077">fuel, its center collapses </tspan></tspan><tspan
         x="581.68359"
         y="440.89606"
         id="tspan4083"><tspan
           style="fill:#ffffff"
           id="tspan4081">into a black hole.</tspan></tspan></text>
    <text
       xml:space="preserve"
       transform="matrix(0.26458333,0,0,0.26458333,-1.2353222,-13.311452)"
       id="text31963"
       style="font-style:normal;font-weight:normal;font-size:13.3333px;line-height:1.25;font-family:sans-serif;white-space:pre;shape-inside:url(#rect31965);fill:#ffffff;fill-opacity:1;stroke:none"><tspan
         x="33.871094"
         y="572.4964"
         id="tspan4085">The outer layers of the </tspan><tspan
         x="33.871094"
         y="589.16303"
         id="tspan4087">star form an accretion </tspan><tspan
         x="33.871094"
         y="605.82966"
         id="tspan4089">disk around the black </tspan><tspan
         x="33.871094"
         y="622.49628"
         id="tspan4091">hole.</tspan></text>
    <text
       xml:space="preserve"
       transform="matrix(0.26458333,0,0,0.26458333,-1.2353222,-13.311452)"
       id="text36244"
       style="font-style:normal;font-weight:normal;font-size:13.3333px;line-height:1.25;font-family:sans-serif;white-space:pre;shape-inside:url(#rect36246);fill:#ffffff;fill-opacity:1;stroke:none"><tspan
         x="593.46484"
         y="805.90656"
         id="tspan4093">Some disk material </tspan><tspan
         x="593.46484"
         y="822.57319"
         id="tspan4095">heats up and forms a jet </tspan><tspan
         x="593.46484"
         y="839.23981"
         id="tspan4097">of hot gas, which heats </tspan><tspan
         x="593.46484"
         y="855.90644"
         id="tspan4099">the ejected stellar </tspan><tspan
         x="593.46484"
         y="872.57306"
         id="tspan4101">material.</tspan></text>
    <text
       xml:space="preserve"
       transform="matrix(0.26458333,0,0,0.26458333,-1.2353222,-13.311452)"
       id="text69958"
       style="font-style:normal;font-weight:normal;font-size:13.3333px;line-height:1.25;font-family:sans-serif;white-space:pre;shape-inside:url(#rect69960);fill:#ffffff;fill-opacity:1;stroke:none"><tspan
         x="36.080078"
         y="965.6839"
         id="tspan4103">The glow from this </tspan><tspan
         x="36.080078"
         y="982.35053"
         id="tspan4105">interaction is the </tspan><tspan
         x="36.080078"
         y="999.01716"
         id="tspan4107">supernova according </tspan><tspan
         x="36.080078"
         y="1015.6838"
         id="tspan4109">to Perley et al.</tspan></text>
  </g>
</svg>
